# Exported from ProBuilder
# http://www.procore3d.com/probuilder
# 11/19/2018 5:56:15 PM

mtllib ./Tree_1.mtl
o Tree_1

g Tree
v 0.5 -0.5 0
v 0.5 0.5 0
v 0.3535534 -0.5 0.3535534
v 0.3535534 0.5 0.3535534
v 0.3535534 -0.5 0.3535534
v 0.3535534 0.5 0.3535534
v -2.185569E-08 -0.5 0.5
v -2.185569E-08 0.5 0.5
v -2.185569E-08 -0.5 0.5
v -2.185569E-08 0.5 0.5
v -0.3535534 -0.5 0.3535534
v -0.3535534 0.5 0.3535534
v -0.3535534 -0.5 0.3535534
v -0.3535534 0.5 0.3535534
v -0.5 -0.5 -4.371139E-08
v -0.5 0.5 -4.371139E-08
v -0.5 -0.5 -4.371139E-08
v -0.5 0.5 -4.371139E-08
v -0.3535534 -0.5 -0.3535534
v -0.3535534 0.5 -0.3535534
v -0.3535534 -0.5 -0.3535534
v -0.3535534 0.5 -0.3535534
v 5.96244E-09 -0.5 -0.5
v 5.96244E-09 0.5 -0.5
v 5.96244E-09 -0.5 -0.5
v 5.96244E-09 0.5 -0.5
v 0.3535533 -0.5 -0.3535534
v 0.3535533 0.5 -0.3535534
v 0.3535533 -0.5 -0.3535534
v 0.3535533 0.5 -0.3535534
v 0.5 -0.5 0
v 0.5 0.5 0
v 0.5 0.5 0
v 0.3154057 0.6692042 -4.873104E-10
v 0.3535534 0.5 0.3535534
v 0.2230255 0.6692042 0.2230255
v 0.3154057 0.6692042 -4.873104E-10
v 0 0.7797999 0
v 0.2230255 0.6692042 0.2230255
v 0.2230255 0.6692042 0.2230255
v -1.28122E-08 0.6692042 0.3154057
v 0.3535534 0.5 0.3535534
v -2.185569E-08 0.5 0.5
v 0.2230255 0.6692042 0.2230255
v 0 0.7797999 0
v -1.28122E-08 0.6692042 0.3154057
v -0.2230255 0.6692042 0.2230255
v -0.3535534 0.5 0.3535534
v -1.28122E-08 0.6692042 0.3154057
v -2.185569E-08 0.5 0.5
v -1.28122E-08 0.6692042 0.3154057
v 0 0.7797999 0
v -0.2230255 0.6692042 0.2230255
v -0.2230255 0.6692042 0.2230255
v -0.3154057 0.6692042 -2.806095E-08
v -0.3535534 0.5 0.3535534
v -0.5 0.5 -4.371139E-08
v -0.2230255 0.6692042 0.2230255
v 0 0.7797999 0
v -0.3154057 0.6692042 -2.806095E-08
v -0.3535534 0.5 -0.3535534
v -0.3154057 0.6692042 -2.806095E-08
v -0.2230255 0.6692042 -0.2230255
v -0.5 0.5 -4.371139E-08
v -0.3154057 0.6692042 -2.806095E-08
v 0 0.7797999 0
v -0.2230255 0.6692042 -0.2230255
v 5.96244E-09 0.5 -0.5
v -0.3535534 0.5 -0.3535534
v 4.735796E-09 0.6692042 -0.3154057
v -0.2230255 0.6692042 -0.2230255
v -0.2230255 0.6692042 -0.2230255
v 0 0.7797999 0
v 4.735796E-09 0.6692042 -0.3154057
v 0.3535533 0.5 -0.3535534
v 5.96244E-09 0.5 -0.5
v 4.735796E-09 0.6692042 -0.3154057
v 0.2230255 0.6692042 -0.2230255
v 4.735796E-09 0.6692042 -0.3154057
v 0 0.7797999 0
v 0.2230255 0.6692042 -0.2230255
v 0.5 0.5 0
v 0.3535533 0.5 -0.3535534
v 0.3154057 0.6692042 -4.873104E-10
v 0.2230255 0.6692042 -0.2230255
v 0.2230255 0.6692042 -0.2230255
v 0 0.7797999 0
v 0.3154057 0.6692042 -4.873104E-10
v 0.1411345 -0.6050382 0.1411345
v 0.1995943 -0.6050382 1.877759E-10
v 0.3535534 -0.5 0.3535534
v 0.5 -0.5 0
v 0.3535534 -0.5 0.3535534
v -2.185569E-08 -0.5 0.5
v -1.003897E-08 -0.6050382 0.1995943
v 0.1411345 -0.6050382 0.1411345
v -2.185569E-08 -0.5 0.5
v -0.3535534 -0.5 0.3535534
v -1.003897E-08 -0.6050382 0.1995943
v -0.1411345 -0.6050382 0.1411345
v -0.3535534 -0.5 0.3535534
v -0.5 -0.5 -4.371139E-08
v -0.1995943 -0.6050382 -1.726131E-08
v -0.1411345 -0.6050382 0.1411345
v -0.1995943 -0.6050382 -1.726131E-08
v -0.5 -0.5 -4.371139E-08
v -0.3535534 -0.5 -0.3535534
v -0.1411345 -0.6050382 -0.1411345
v -0.1411345 -0.6050382 -0.1411345
v -0.3535534 -0.5 -0.3535534
v 1.065708E-09 -0.6050382 -0.1995943
v 5.96244E-09 -0.5 -0.5
v 0.1411345 -0.6050382 -0.1411345
v 1.065708E-09 -0.6050382 -0.1995943
v 0.3535533 -0.5 -0.3535534
v 5.96244E-09 -0.5 -0.5
v 0.1995943 -0.6050382 1.877759E-10
v 0.1411345 -0.6050382 -0.1411345
v 0.3535533 -0.5 -0.3535534
v 0.5 -0.5 0
v 0.1360536 -1.615877 0.1360535
v -1.001204E-09 -1.615877 1.001206E-09
v 0.1924088 -1.615877 1.001206E-09
v -9.411663E-09 -1.615877 0.1924088
v -0.1360536 -1.615877 0.1360535
v -0.1924088 -1.615877 -1.58197E-08
v -0.1360536 -1.615877 -0.1360535
v 1.293248E-09 -1.615877 -0.1924088
v 0.1360536 -1.615877 -0.1360536
v 0.1411345 -0.6050382 0.1411345
v -1.003897E-08 -0.6050382 0.1995943
v 0.1360536 -1.615877 0.1360535
v -9.411663E-09 -1.615877 0.1924088
v 0.1995943 -0.6050382 1.877759E-10
v 0.1411345 -0.6050382 0.1411345
v 0.1924088 -1.615877 1.001206E-09
v 0.1360536 -1.615877 0.1360535
v -1.003897E-08 -0.6050382 0.1995943
v -0.1411345 -0.6050382 0.1411345
v -9.411663E-09 -1.615877 0.1924088
v -0.1360536 -1.615877 0.1360535
v -0.1411345 -0.6050382 0.1411345
v -0.1995943 -0.6050382 -1.726131E-08
v -0.1360536 -1.615877 0.1360535
v -0.1924088 -1.615877 -1.58197E-08
v -0.1995943 -0.6050382 -1.726131E-08
v -0.1411345 -0.6050382 -0.1411345
v -0.1924088 -1.615877 -1.58197E-08
v -0.1360536 -1.615877 -0.1360535
v -0.1411345 -0.6050382 -0.1411345
v 1.065708E-09 -0.6050382 -0.1995943
v -0.1360536 -1.615877 -0.1360535
v 1.293248E-09 -1.615877 -0.1924088
v 1.065708E-09 -0.6050382 -0.1995943
v 0.1411345 -0.6050382 -0.1411345
v 1.293248E-09 -1.615877 -0.1924088
v 0.1360536 -1.615877 -0.1360536
v 0.1411345 -0.6050382 -0.1411345
v 0.1995943 -0.6050382 1.877759E-10
v 0.1360536 -1.615877 -0.1360536
v 0.1924088 -1.615877 1.001206E-09

vn 0.9238796 0 0.3826835
vn 0.9238796 0 0.3826835
vn 0.9238796 0 0.3826835
vn 0.9238796 0 0.3826835
vn 0.3826834 0 0.9238796
vn 0.3826834 0 0.9238796
vn 0.3826834 0 0.9238796
vn 0.3826834 0 0.9238796
vn -0.3826835 0 0.9238796
vn -0.3826835 0 0.9238796
vn -0.3826835 0 0.9238796
vn -0.3826835 0 0.9238796
vn -0.9238796 0 0.3826834
vn -0.9238796 0 0.3826834
vn -0.9238796 0 0.3826834
vn -0.9238796 0 0.3826834
vn -0.9238795 0 -0.3826834
vn -0.9238795 0 -0.3826834
vn -0.9238795 0 -0.3826834
vn -0.9238795 0 -0.3826834
vn -0.3826835 0 -0.9238796
vn -0.3826835 0 -0.9238796
vn -0.3826835 0 -0.9238796
vn -0.3826835 0 -0.9238796
vn 0.3826833 0 -0.9238795
vn 0.3826833 0 -0.9238795
vn 0.3826833 0 -0.9238795
vn 0.3826833 0 -0.9238795
vn 0.9238794 0 -0.3826835
vn 0.9238794 0 -0.3826835
vn 0.9238794 0 -0.3826835
vn 0.9238794 0 -0.3826835
vn 0.6507024 0.7098874 0.2695298
vn 0.6507024 0.7098874 0.2695298
vn 0.6507024 0.7098874 0.2695298
vn 0.6507024 0.7098874 0.2695298
vn 0.3278284 0.9349275 0.135791
vn 0.3278284 0.9349275 0.135791
vn 0.3278284 0.9349275 0.135791
vn 0.2695298 0.7098874 0.6507024
vn 0.2695297 0.7098874 0.6507024
vn 0.2695297 0.7098874 0.6507024
vn 0.2695298 0.7098874 0.6507024
vn 0.135791 0.9349275 0.3278284
vn 0.135791 0.9349275 0.3278284
vn 0.135791 0.9349275 0.3278284
vn -0.2695298 0.7098874 0.6507024
vn -0.2695297 0.7098874 0.6507023
vn -0.2695297 0.7098874 0.6507023
vn -0.2695298 0.7098874 0.6507024
vn -0.135791 0.9349274 0.3278284
vn -0.135791 0.9349274 0.3278284
vn -0.135791 0.9349274 0.3278284
vn -0.6507024 0.7098873 0.2695297
vn -0.6507024 0.7098874 0.2695297
vn -0.6507024 0.7098874 0.2695297
vn -0.6507024 0.7098874 0.2695297
vn -0.3278284 0.9349274 0.135791
vn -0.3278284 0.9349274 0.135791
vn -0.3278284 0.9349274 0.135791
vn -0.6507024 0.7098874 -0.2695298
vn -0.6507024 0.7098874 -0.2695298
vn -0.6507024 0.7098874 -0.2695298
vn -0.6507024 0.7098874 -0.2695298
vn -0.3278284 0.9349275 -0.135791
vn -0.3278284 0.9349275 -0.135791
vn -0.3278284 0.9349275 -0.135791
vn -0.2695298 0.7098874 -0.6507024
vn -0.2695298 0.7098874 -0.6507024
vn -0.2695298 0.7098874 -0.6507024
vn -0.2695298 0.7098874 -0.6507024
vn -0.135791 0.9349275 -0.3278284
vn -0.135791 0.9349275 -0.3278284
vn -0.135791 0.9349275 -0.3278284
vn 0.2695297 0.7098874 -0.6507024
vn 0.2695297 0.7098874 -0.6507024
vn 0.2695297 0.7098874 -0.6507024
vn 0.2695297 0.7098874 -0.6507024
vn 0.135791 0.9349275 -0.3278285
vn 0.135791 0.9349275 -0.3278285
vn 0.135791 0.9349275 -0.3278285
vn 0.6507024 0.7098874 -0.2695298
vn 0.6507025 0.7098874 -0.2695298
vn 0.6507025 0.7098874 -0.2695298
vn 0.6507025 0.7098873 -0.2695298
vn 0.3278284 0.9349274 -0.135791
vn 0.3278284 0.9349274 -0.135791
vn 0.3278284 0.9349274 -0.135791
vn 0.3270178 -0.93526 0.1354552
vn 0.3270178 -0.93526 0.1354552
vn 0.3270178 -0.93526 0.1354552
vn 0.3270178 -0.93526 0.1354552
vn 0.1354552 -0.9352599 0.3270177
vn 0.1354552 -0.93526 0.3270178
vn 0.1354552 -0.9352599 0.3270177
vn 0.1354552 -0.93526 0.3270178
vn -0.1354552 -0.9352599 0.3270177
vn -0.1354552 -0.93526 0.3270178
vn -0.1354552 -0.93526 0.3270178
vn -0.1354552 -0.93526 0.3270177
vn -0.3270178 -0.9352599 0.1354552
vn -0.3270178 -0.93526 0.1354552
vn -0.3270178 -0.9352599 0.1354552
vn -0.3270178 -0.93526 0.1354551
vn -0.3270178 -0.93526 -0.1354552
vn -0.3270177 -0.9352599 -0.1354552
vn -0.3270178 -0.93526 -0.1354552
vn -0.3270178 -0.9352601 -0.1354552
vn -0.1354552 -0.93526 -0.3270178
vn -0.1354552 -0.9352599 -0.3270178
vn -0.1354552 -0.9352599 -0.3270178
vn -0.1354552 -0.93526 -0.3270178
vn 0.1354552 -0.93526 -0.3270177
vn 0.1354552 -0.93526 -0.3270178
vn 0.1354552 -0.93526 -0.3270178
vn 0.1354552 -0.9352601 -0.3270178
vn 0.3270178 -0.9352599 -0.1354552
vn 0.3270177 -0.93526 -0.1354552
vn 0.3270178 -0.9352599 -0.1354552
vn 0.3270178 -0.9352601 -0.1354552
vn 0 -1 0
vn 0 -1 0
vn 0 -1 0
vn 0 -1 0
vn 0 -1 0
vn 0 -1 0
vn 0 -1 0
vn 0 -1 0
vn 0 -1 0
vn 0.3826751 -0.006567238 0.9238597
vn 0.3826751 -0.006567247 0.9238597
vn 0.3826751 -0.006567247 0.9238597
vn 0.382675 -0.006567257 0.9238597
vn 0.9238596 -0.006567175 0.3826752
vn 0.9238597 -0.006567191 0.3826753
vn 0.9238597 -0.006567191 0.3826753
vn 0.9238595 -0.006567207 0.3826754
vn -0.3826752 -0.006567257 0.9238597
vn -0.3826752 -0.006567248 0.9238597
vn -0.3826752 -0.006567248 0.9238597
vn -0.3826751 -0.006567238 0.9238596
vn -0.9238597 -0.006567206 0.3826751
vn -0.9238597 -0.006567191 0.3826753
vn -0.9238597 -0.006567191 0.3826753
vn -0.9238596 -0.006567174 0.3826754
vn -0.9238596 -0.006567176 -0.3826752
vn -0.9238596 -0.006567191 -0.3826753
vn -0.9238596 -0.006567191 -0.3826753
vn -0.9238595 -0.006567206 -0.3826753
vn -0.3826753 -0.006567238 -0.9238597
vn -0.3826752 -0.006567248 -0.9238597
vn -0.3826752 -0.006567248 -0.9238597
vn -0.3826751 -0.006567257 -0.9238597
vn 0.3826752 -0.006567256 -0.9238596
vn 0.3826751 -0.006567238 -0.9238597
vn 0.3826751 -0.006567238 -0.9238597
vn 0.3826749 -0.006567218 -0.9238597
vn 0.9238596 -0.006567188 -0.3826753
vn 0.9238595 -0.006567181 -0.3826754
vn 0.9238595 -0.006567181 -0.3826754
vn 0.9238595 -0.006567175 -0.3826754

vt -0.1913417 -0.5
vt -0.1913417 0.5
vt 0.1913417 -0.5
vt 0.1913417 0.5
vt -0.1913417 -0.5
vt -0.1913417 0.5
vt 0.1913417 -0.5
vt 0.1913417 0.5
vt -0.1913417 -0.5
vt -0.1913417 0.5
vt 0.1913417 -0.5
vt 0.1913417 0.5
vt -0.1913417 -0.5
vt -0.1913417 0.5
vt 0.1913418 -0.5
vt 0.1913418 0.5
vt -0.1913417 -0.5
vt -0.1913417 0.5
vt 0.1913417 -0.5
vt 0.1913417 0.5
vt -0.1913417 -0.5
vt -0.1913417 0.5
vt 0.1913418 -0.5
vt 0.1913418 0.5
vt -0.1913417 -0.5
vt -0.1913417 0.5
vt 0.1913417 -0.5
vt 0.1913417 0.5
vt -0.1913418 -0.5
vt -0.1913418 0.5
vt 0.1913418 -0.5
vt 0.1913418 0.5
vt 0.185906 -0.1373829
vt -0.05832734 -0.1485136
vt 0.05877033 0.2235646
vt -0.138526 0.07917627
vt -0.05832734 -0.1485136
vt -0.3870341 -0.1363241
vt -0.138526 0.07917627
vt 0.06281323 -0.1466725
vt -0.15421 -0.0409588
vt 0.2288193 0.03281515
vt -0.115219 0.2003989
vt 0.06281323 -0.1466725
vt -0.1796954 -0.3689027
vt -0.15421 -0.0409588
vt -0.06281322 -0.1466725
vt -0.2288193 0.03281516
vt 0.15421 -0.04095878
vt 0.1152189 0.2003989
vt 0.15421 -0.04095878
vt 0.1796955 -0.3689027
vt -0.06281322 -0.1466725
vt 0.138526 0.07917631
vt 0.05832734 -0.1485135
vt -0.05877033 0.2235647
vt -0.185906 -0.1373829
vt 0.138526 0.07917631
vt 0.3870341 -0.1363241
vt 0.05832734 -0.1485135
vt -0.05877033 -0.2235646
vt 0.05832738 0.1485135
vt 0.138526 -0.07917628
vt -0.185906 0.1373828
vt 0.05832738 0.1485135
vt 0.3870341 0.1363241
vt 0.138526 -0.07917628
vt 0.1152189 -0.2003989
vt -0.2288193 -0.03281512
vt 0.15421 0.0409588
vt -0.06281324 0.1466726
vt -0.06281324 0.1466726
vt 0.1796954 0.3689027
vt 0.15421 0.0409588
vt 0.2288193 -0.03281518
vt -0.1152189 -0.2003989
vt -0.15421 0.04095884
vt 0.06281324 0.1466725
vt -0.15421 0.04095884
vt -0.1796954 0.3689027
vt 0.06281324 0.1466725
vt 0.185906 0.1373829
vt 0.05877028 -0.2235647
vt -0.05832734 0.1485136
vt -0.138526 -0.0791763
vt -0.138526 -0.0791763
vt -0.3870341 0.1363242
vt -0.05832734 0.1485136
vt 0.06647344 0.05616106
vt 0.0112897 -0.0862863
vt -0.1687104 0.2705559
vt -0.3069502 -0.0862863
vt -0.2782346 0.1557216
vt 0.07166806 0.3106886
vt 0.0867238 -0.00719492
vt -0.05295335 -0.06905597
vt -0.07166803 0.3106886
vt 0.2782346 0.1557216
vt -0.0867238 -0.007194921
vt 0.05295333 -0.06905597
vt 0.1687104 0.2705559
vt 0.3069502 -0.08628634
vt -0.01128972 -0.08628631
vt -0.06647345 0.05616106
vt -0.0112897 0.08628628
vt 0.3069502 0.08628625
vt 0.1687104 -0.2705559
vt -0.06647342 -0.05616105
vt 0.05295335 0.06905597
vt 0.2782346 -0.1557216
vt -0.08672381 0.007194902
vt -0.07166806 -0.3106886
vt -0.05295333 0.06905594
vt 0.08672378 0.007194902
vt -0.2782345 -0.1557217
vt 0.07166802 -0.3106886
vt 0.01128969 0.08628633
vt 0.06647345 -0.05616104
vt -0.1687104 -0.270556
vt -0.3069502 0.08628632
vt -0.1360536 0.1360535
vt 1.001204E-09 1.001206E-09
vt -0.1924088 1.001206E-09
vt 9.411663E-09 0.1924088
vt 0.1360536 0.1360535
vt 0.1924088 -1.58197E-08
vt 0.1360536 -0.1360535
vt -1.293248E-09 -0.1924088
vt -0.1360536 -0.1360536
vt -0.07638144 -0.6038141
vt 0.07638144 -0.6038141
vt -0.0736317 -1.614675
vt 0.07363164 -1.614675
vt -0.07638143 -0.6038141
vt 0.07638144 -0.6038141
vt -0.07363167 -1.614675
vt 0.07363162 -1.614675
vt -0.07638144 -0.6038141
vt 0.07638142 -0.6038141
vt -0.07363164 -1.614675
vt 0.07363168 -1.614675
vt -0.07638144 -0.6038141
vt 0.07638144 -0.6038141
vt -0.07363163 -1.614675
vt 0.07363168 -1.614675
vt -0.07638142 -0.6038141
vt 0.07638141 -0.6038141
vt -0.07363166 -1.614675
vt 0.0736316 -1.614675
vt -0.07638145 -0.6038141
vt 0.07638144 -0.6038141
vt -0.07363171 -1.614675
vt 0.07363165 -1.614675
vt -0.07638143 -0.6038141
vt 0.0763814 -0.6038141
vt -0.07363164 -1.614675
vt 0.07363167 -1.614675
vt -0.07638142 -0.6038141
vt 0.07638146 -0.6038141
vt -0.07363162 -1.614675
vt 0.0736317 -1.614675

g Tree_0
usemtl Tree
f 1/1/1 2/2/2 3/3/3
f 2/2/2 4/4/4 3/3/3
f 5/5/5 6/6/6 7/7/7
f 6/6/6 8/8/8 7/7/7
f 9/9/9 10/10/10 11/11/11
f 10/10/10 12/12/12 11/11/11
f 13/13/13 14/14/14 15/15/15
f 14/14/14 16/16/16 15/15/15
f 17/17/17 18/18/18 19/19/19
f 18/18/18 20/20/20 19/19/19
f 21/21/21 22/22/22 23/23/23
f 22/22/22 24/24/24 23/23/23
f 25/25/25 26/26/26 27/27/27
f 26/26/26 28/28/28 27/27/27
f 29/29/29 30/30/30 31/31/31
f 30/30/30 32/32/32 31/31/31
f 33/33/33 34/34/34 35/35/35
f 35/35/35 34/34/34 36/36/36
f 37/37/37 38/38/38 39/39/39
f 40/40/40 41/41/41 42/42/42
f 41/41/41 43/43/43 42/42/42
f 44/44/44 45/45/45 46/46/46
f 47/47/47 48/48/48 49/49/49
f 49/49/49 48/48/48 50/50/50
f 51/51/51 52/52/52 53/53/53
f 54/54/54 55/55/55 56/56/56
f 55/55/55 57/57/57 56/56/56
f 58/58/58 59/59/59 60/60/60
f 61/61/61 62/62/62 63/63/63
f 61/61/61 64/64/64 62/62/62
f 65/65/65 66/66/66 67/67/67
f 68/68/68 69/69/69 70/70/70
f 70/70/70 69/69/69 71/71/71
f 72/72/72 73/73/73 74/74/74
f 75/75/75 76/76/76 77/77/77
f 75/75/75 77/77/77 78/78/78
f 79/79/79 80/80/80 81/81/81
f 82/82/82 83/83/83 84/84/84
f 83/83/83 85/85/85 84/84/84
f 86/86/86 87/87/87 88/88/88
f 89/89/89 90/90/90 91/91/91
f 91/91/91 90/90/90 92/92/92
f 93/93/93 94/94/94 95/95/95
f 93/93/93 95/95/95 96/96/96
f 97/97/97 98/98/98 99/99/99
f 99/99/99 98/98/98 100/100/100
f 101/101/101 102/102/102 103/103/103
f 101/101/101 103/103/103 104/104/104
f 105/105/105 106/106/106 107/107/107
f 108/108/108 105/105/105 107/107/107
f 109/109/109 110/110/110 111/111/111
f 111/111/111 110/110/110 112/112/112
f 113/113/113 114/114/114 115/115/115
f 114/114/114 116/116/116 115/115/115
f 117/117/117 118/118/118 119/119/119
f 117/117/117 119/119/119 120/120/120

g Tree_1
usemtl TreeTrunk
f 121/121/121 122/122/122 123/123/123
f 124/124/124 122/122/122 121/121/121
f 125/125/125 122/122/122 124/124/124
f 126/126/126 122/122/122 125/125/125
f 127/127/127 122/122/122 126/126/126
f 128/128/128 122/122/122 127/127/127
f 129/129/129 122/122/122 128/128/128
f 123/123/123 122/122/122 129/129/129
f 130/130/130 131/131/131 132/132/132
f 131/131/131 133/133/133 132/132/132
f 134/134/134 135/135/135 136/136/136
f 135/135/135 137/137/137 136/136/136
f 138/138/138 139/139/139 140/140/140
f 139/139/139 141/141/141 140/140/140
f 142/142/142 143/143/143 144/144/144
f 143/143/143 145/145/145 144/144/144
f 146/146/146 147/147/147 148/148/148
f 147/147/147 149/149/149 148/148/148
f 150/150/150 151/151/151 152/152/152
f 151/151/151 153/153/153 152/152/152
f 154/154/154 155/155/155 156/156/156
f 155/155/155 157/157/157 156/156/156
f 158/158/158 159/159/159 160/160/160
f 159/159/159 161/161/161 160/160/160

