# Exported from ProBuilder
# http://www.procore3d.com/probuilder
# 11/19/2018 9:55:24 PM

mtllib ./RocketCone.mtl
o RocketCone

g Cone
v 0.5 -0.3328533 0
v 0.3535534 -0.3328533 0.3535534
v 0 -0.3328533 0
v 0 -0.3328533 0.5
v -0.3535534 -0.3328533 0.3535534
v -0.5 -0.3328533 -4.371139E-08
v -0.3535534 -0.3328533 -0.3535534
v 0 -0.3328533 -0.5
v 0.3535533 -0.3328533 -0.3535534
v 0 0.3328533 0
v 0.2680569 0.02311802 0.268057
v 0.3790897 0.02311802 -6.563585E-10
v 0.3535534 -0.3328533 0.3535534
v 0.3790897 0.02311802 -6.563585E-10
v 0.2680569 0.02311802 0.268057
v 0.5 -0.3328533 0
v 0 0.3328533 0
v 0 0.02311802 0.3790898
v 0.2680569 0.02311802 0.268057
v 0.3535534 -0.3328533 0.3535534
v 0 0.02311802 0.3790898
v 0 -0.3328533 0.5
v 0.2680569 0.02311802 0.268057
v 0 0.3328533 0
v -0.2680569 0.02311802 0.268057
v 0 0.02311802 0.3790898
v 0 -0.3328533 0.5
v -0.2680569 0.02311802 0.268057
v -0.3535534 -0.3328533 0.3535534
v 0 0.02311802 0.3790898
v 0 0.3328533 0
v -0.3790897 0.02311802 -3.379744E-08
v -0.2680569 0.02311802 0.268057
v -0.2680569 0.02311802 0.268057
v -0.3790897 0.02311802 -3.379744E-08
v -0.5 -0.3328533 -4.371139E-08
v -0.3535534 -0.3328533 0.3535534
v 0 0.3328533 0
v -0.2680569 0.02311802 -0.2680569
v -0.3790897 0.02311802 -3.379744E-08
v -0.3790897 0.02311802 -3.379744E-08
v -0.2680569 0.02311802 -0.2680569
v -0.3535534 -0.3328533 -0.3535534
v -0.5 -0.3328533 -4.371139E-08
v 0 0.3328533 0
v 0 0.02311802 -0.3790898
v -0.2680569 0.02311802 -0.2680569
v 0 0.02311802 -0.3790898
v 0 -0.3328533 -0.5
v -0.3535534 -0.3328533 -0.3535534
v -0.2680569 0.02311802 -0.2680569
v 0 0.3328533 0
v 0.2680568 0.02311802 -0.268057
v 0 0.02311802 -0.3790898
v 0.2680568 0.02311802 -0.268057
v 0.3535533 -0.3328533 -0.3535534
v 0 -0.3328533 -0.5
v 0 0.02311802 -0.3790898
v 0 0.3328533 0
v 0.3790897 0.02311802 -6.563585E-10
v 0.2680568 0.02311802 -0.268057
v 0.3535533 -0.3328533 -0.3535534
v 0.3790897 0.02311802 -6.563585E-10
v 0.5 -0.3328533 0
v 0.2680568 0.02311802 -0.268057

vn 0 -0.9999999 0
vn 0 -0.9999999 0
vn 0 -0.9999999 0
vn 0 -0.9999999 0
vn 0 -0.9999999 0
vn 0 -0.9999999 0
vn 0 -0.9999999 0
vn 0 -0.9999999 0
vn 0 -0.9999999 0
vn 0.6120427 0.7490883 0.2535163
vn 0.6120427 0.7490883 0.2535163
vn 0.6120427 0.7490883 0.2535163
vn 0.8814957 0.2994114 0.3651275
vn 0.8814957 0.2994114 0.3651275
vn 0.8814957 0.2994113 0.3651275
vn 0.8814957 0.2994114 0.3651275
vn 0.2535163 0.7490883 0.6120426
vn 0.2535163 0.7490883 0.6120426
vn 0.2535163 0.7490883 0.6120426
vn 0.3651275 0.2994114 0.8814958
vn 0.3651275 0.2994114 0.8814958
vn 0.3651275 0.2994114 0.8814958
vn 0.3651275 0.2994113 0.8814957
vn -0.2535164 0.7490883 0.6120426
vn -0.2535164 0.7490883 0.6120426
vn -0.2535164 0.7490883 0.6120426
vn -0.3651275 0.2994114 0.8814958
vn -0.3651275 0.2994114 0.8814958
vn -0.3651275 0.2994114 0.8814958
vn -0.3651276 0.2994113 0.8814957
vn -0.6120427 0.7490883 0.2535163
vn -0.6120427 0.7490883 0.2535163
vn -0.6120427 0.7490883 0.2535163
vn -0.8814957 0.2994115 0.3651274
vn -0.8814957 0.2994114 0.3651275
vn -0.8814957 0.2994115 0.3651274
vn -0.8814957 0.2994116 0.3651274
vn -0.6120427 0.7490883 -0.2535164
vn -0.6120427 0.7490883 -0.2535164
vn -0.6120427 0.7490883 -0.2535164
vn -0.8814957 0.2994115 -0.3651275
vn -0.8814956 0.2994116 -0.3651276
vn -0.8814957 0.2994115 -0.3651275
vn -0.8814957 0.2994114 -0.3651275
vn -0.2535165 0.7490883 -0.6120426
vn -0.2535165 0.7490883 -0.6120426
vn -0.2535165 0.7490883 -0.6120426
vn -0.3651276 0.2994114 -0.8814957
vn -0.3651275 0.2994113 -0.8814957
vn -0.3651276 0.2994114 -0.8814957
vn -0.3651276 0.2994114 -0.8814956
vn 0.2535163 0.7490883 -0.6120425
vn 0.2535163 0.7490883 -0.6120425
vn 0.2535163 0.7490883 -0.6120425
vn 0.3651275 0.2994114 -0.8814958
vn 0.3651274 0.2994114 -0.8814958
vn 0.3651275 0.2994114 -0.8814958
vn 0.3651275 0.2994113 -0.8814957
vn 0.6120426 0.7490883 -0.2535165
vn 0.6120426 0.7490883 -0.2535165
vn 0.6120426 0.7490883 -0.2535165
vn 0.8814957 0.2994114 -0.3651276
vn 0.8814957 0.2994114 -0.3651276
vn 0.8814958 0.2994114 -0.3651276
vn 0.8814957 0.2994114 -0.3651276

vt -0.5 0
vt -0.3535534 0.3535534
vt 0 0
vt 0 0.5
vt 0.3535534 0.3535534
vt 0.5 -4.371139E-08
vt 0.3535534 -0.3535534
vt 0 -0.5
vt -0.3535533 -0.3535534
vt 0 0.2858063
vt 0.1707875 -0.1536175
vt -0.1185472 -0.1647084
vt 0.22526 -0.5146015
vt -0.1185472 -0.1647084
vt 0.1707875 -0.1536175
vt -0.1563577 -0.5292299
vt 0 0.2858063
vt 0.1185472 -0.1647084
vt -0.1707875 -0.1536175
vt -0.22526 -0.5146015
vt 0.1185472 -0.1647084
vt 0.1563577 -0.5292299
vt -0.1707875 -0.1536175
vt 0 0.2858063
vt 0.1707874 -0.1536175
vt -0.1185472 -0.1647084
vt -0.1563577 -0.5292299
vt 0.1707874 -0.1536175
vt 0.22526 -0.5146015
vt -0.1185472 -0.1647084
vt 0 0.2858063
vt -0.1185472 -0.1647084
vt 0.1707876 -0.1536174
vt 0.1707876 -0.1536174
vt -0.1185472 -0.1647084
vt -0.1563577 -0.5292299
vt 0.22526 -0.5146015
vt 0 0.2858063
vt -0.1707875 -0.1536174
vt 0.1185472 -0.1647084
vt 0.1185472 -0.1647084
vt -0.1707875 -0.1536174
vt -0.2252599 -0.5146015
vt 0.1563577 -0.5292299
vt 0 0.2858063
vt -0.1185473 -0.1647084
vt 0.1707874 -0.1536174
vt -0.1185473 -0.1647084
vt -0.1563578 -0.5292299
vt 0.2252599 -0.5146015
vt 0.1707874 -0.1536174
vt 0 0.2858063
vt -0.1707874 -0.1536175
vt 0.1185472 -0.1647084
vt -0.1707874 -0.1536175
vt -0.2252599 -0.5146015
vt 0.1563577 -0.5292299
vt 0.1185472 -0.1647084
vt 0 0.2858063
vt 0.1185473 -0.1647084
vt -0.1707875 -0.1536175
vt -0.22526 -0.5146015
vt 0.1185473 -0.1647084
vt 0.1563578 -0.5292299
vt -0.1707875 -0.1536175

g Cone
usemtl Metal
f 1/1/1 2/2/2 3/3/3
f 2/2/2 4/4/4 3/3/3
f 4/4/4 5/5/5 3/3/3
f 5/5/5 6/6/6 3/3/3
f 6/6/6 7/7/7 3/3/3
f 7/7/7 8/8/8 3/3/3
f 8/8/8 9/9/9 3/3/3
f 9/9/9 1/1/1 3/3/3
f 10/10/10 11/11/11 12/12/12
f 13/13/13 14/14/14 15/15/15
f 13/13/13 16/16/16 14/14/14
f 17/17/17 18/18/18 19/19/19
f 20/20/20 21/21/21 22/22/22
f 20/20/20 23/23/23 21/21/21
f 24/24/24 25/25/25 26/26/26
f 27/27/27 28/28/28 29/29/29
f 27/27/27 30/30/30 28/28/28
f 31/31/31 32/32/32 33/33/33
f 34/34/34 35/35/35 36/36/36
f 37/37/37 34/34/34 36/36/36
f 38/38/38 39/39/39 40/40/40
f 41/41/41 42/42/42 43/43/43
f 44/44/44 41/41/41 43/43/43
f 45/45/45 46/46/46 47/47/47
f 48/48/48 49/49/49 50/50/50
f 51/51/51 48/48/48 50/50/50
f 52/52/52 53/53/53 54/54/54
f 55/55/55 56/56/56 57/57/57
f 58/58/58 55/55/55 57/57/57
f 59/59/59 60/60/60 61/61/61
f 62/62/62 63/63/63 64/64/64
f 62/62/62 65/65/65 63/63/63

