# Exported from ProBuilder
# http://www.procore3d.com/probuilder
# 11/22/2018 9:36:09 PM

mtllib ./HealthPackBaseModel.mtl
o HealthPackBaseModel

g Cylinder
v 0.5 0 0
v 0.5 0.4335232 0
v 0.25 0 0.4330127
v 0.25 0.4335232 0.4330127
v 0.25 0 0.4330127
v 0.25 0.4335232 0.4330127
v -0.25 0 0.4330127
v -0.25 0.4335232 0.4330127
v -0.25 0 0.4330127
v -0.25 0.4335232 0.4330127
v -0.5 0 -4.371139E-08
v -0.5 0.4335232 -4.371139E-08
v -0.5 0 -4.371139E-08
v -0.5 0.4335232 -4.371139E-08
v -0.25 0 -0.4330127
v -0.25 0.4335232 -0.4330127
v -0.25 0 -0.4330127
v -0.25 0.4335232 -0.4330127
v 0.25 0 -0.4330127
v 0.25 0.4335232 -0.4330127
v 0.25 0 -0.4330127
v 0.25 0.4335232 -0.4330127
v 0.5 0 0
v 0.5 0.4335232 0
v 0.25 0 0.4330127
v 0 0 0
v 0.5 0 0
v -0.25 0 0.4330127
v -0.5 0 -4.371139E-08
v 0 0 0
v -0.25 0 0.4330127
v -0.25 0 -0.4330127
v -0.5 0 -4.371139E-08
v 0.25 0 -0.4330127
v 0.4201425 0.5 0
v 0.2100712 0.5 0.3638541
v 0.5 0.4335232 0
v 0.2100712 0.5 0.3638541
v 0.25 0.4335232 0.4330127
v 0.5 0.4335232 0
v 0.4201425 0.5 0
v 0 0.5 0
v 0.2100712 0.5 0.3638541
v 0.2100712 0.5 0.3638541
v -0.2100713 0.5 0.3638541
v -0.25 0.4335232 0.4330127
v 0.25 0.4335232 0.4330127
v 0.2100712 0.5 0.3638541
v 0 0.5 0
v -0.2100713 0.5 0.3638541
v -0.4201425 0.5 -3.673003E-08
v -0.5 0.4335232 -4.371139E-08
v -0.2100713 0.5 0.3638541
v -0.25 0.4335232 0.4330127
v -0.2100713 0.5 0.3638541
v 0 0.5 0
v -0.4201425 0.5 -3.673003E-08
v -0.25 0.4335232 -0.4330127
v -0.4201425 0.5 -3.673003E-08
v -0.2100712 0.5 -0.3638541
v -0.5 0.4335232 -4.371139E-08
v -0.4201425 0.5 -3.673003E-08
v 0 0.5 0
v -0.2100712 0.5 -0.3638541
v 0.25 0.4335232 -0.4330127
v -0.2100712 0.5 -0.3638541
v 0.2100712 0.5 -0.3638541
v -0.25 0.4335232 -0.4330127
v -0.2100712 0.5 -0.3638541
v 0 0.5 0
v 0.2100712 0.5 -0.3638541
v 0.25 0.4335232 -0.4330127
v 0.4201425 0.5 0
v 0.5 0.4335232 0
v 0.2100712 0.5 -0.3638541
v 0.2100712 0.5 -0.3638541
v 0 0.5 0
v 0.4201425 0.5 0

vn 0.8660254 0 0.5
vn 0.8660254 0 0.5
vn 0.8660254 0 0.5
vn 0.8660254 0 0.5
vn -5.960464E-08 0 0.9999999
vn -5.960464E-08 0 0.9999999
vn -5.960464E-08 0 0.9999999
vn -5.960464E-08 0 0.9999999
vn -0.8660254 0 0.4999999
vn -0.8660254 0 0.4999999
vn -0.8660254 0 0.4999999
vn -0.8660254 0 0.4999999
vn -0.8660254 0 -0.5000001
vn -0.8660254 0 -0.5000001
vn -0.8660254 0 -0.5000001
vn -0.8660254 0 -0.5000001
vn 0 0 -0.9999999
vn 0 0 -0.9999999
vn 0 0 -0.9999999
vn 0 0 -0.9999999
vn 0.8660253 0 -0.5
vn 0.8660253 0 -0.5
vn 0.8660253 0 -0.5
vn 0.8660253 0 -0.5
vn 0 -1 0
vn 0 -1 0
vn 0 -1 0
vn 0 -1 0
vn 0 -0.9999999 0
vn 0 -0.9999999 0
vn 0 -0.9999999 0
vn 0 -1 0
vn 0 -1 0
vn 0 -1 0
vn 0.6001472 0.7209469 0.3464952
vn 0.6001472 0.7209468 0.3464952
vn 0.6001472 0.7209468 0.3464952
vn 0.6001472 0.7209468 0.3464952
vn 0.6001472 0.7209468 0.3464952
vn 0.6001472 0.7209468 0.3464952
vn 0 1 0
vn 0 1 0
vn 0 1 0
vn -4.882314E-08 0.7209468 0.6929904
vn -4.915647E-08 0.7209468 0.6929904
vn -4.882314E-08 0.7209468 0.6929904
vn -4.854305E-08 0.7209468 0.6929904
vn 0 1 0
vn 0 1 0
vn 0 1 0
vn -0.6001472 0.7209468 0.3464951
vn -0.6001472 0.7209468 0.3464951
vn -0.6001472 0.7209468 0.3464951
vn -0.6001472 0.7209469 0.3464951
vn 0 1 0
vn 0 1 0
vn 0 1 0
vn -0.6001472 0.7209469 -0.3464952
vn -0.6001472 0.7209469 -0.3464952
vn -0.6001472 0.7209468 -0.3464952
vn -0.6001471 0.7209468 -0.3464952
vn 0 1 0
vn 0 1 0
vn 0 1 0
vn 0 0.7209468 -0.6929904
vn 0 0.7209468 -0.6929904
vn 0 0.7209469 -0.6929904
vn 0 0.7209468 -0.6929904
vn 0 1 0
vn 0 1 0
vn 0 1 0
vn 0.6001472 0.7209469 -0.3464952
vn 0.6001472 0.7209469 -0.3464952
vn 0.6001472 0.7209468 -0.3464952
vn 0.6001472 0.7209468 -0.3464952
vn 0 1 0
vn 0 1 0
vn 0 1 0

vt -0.25 0
vt -0.25 0.4335232
vt 0.2500001 0
vt 0.2500001 0.4335232
vt -0.25 0
vt -0.25 0.4335232
vt 0.25 0
vt 0.25 0.4335232
vt -0.25 0
vt -0.25 0.4335232
vt 0.25 0
vt 0.25 0.4335232
vt -0.25 0
vt -0.25 0.4335232
vt 0.25 0
vt 0.25 0.4335232
vt -0.25 0
vt -0.25 0.4335232
vt 0.25 0
vt 0.25 0.4335232
vt -0.25 0
vt -0.25 0.4335232
vt 0.25 0
vt 0.25 0.4335232
vt -0.25 0.4330127
vt 0 0
vt -0.5 0
vt 0.25 0.4330127
vt 0.5 -4.371139E-08
vt 0 0
vt 0.25 0.4330127
vt 0.25 -0.4330127
vt 0.5 -4.371139E-08
vt -0.25 -0.4330127
vt 0.3754029 -0.02660679
vt 0.1661161 0.3376991
vt 0.4607019 -0.02365272
vt 0.1661161 0.3376991
vt 0.2116354 0.4098977
vt 0.4607019 -0.02365272
vt 0.3754029 -0.02660679
vt -0.04317065 -0.02480072
vt 0.1661161 0.3376991
vt 0.2100712 0.3122585
vt -0.2100713 0.3122584
vt -0.25 0.3876927
vt 0.25 0.3876927
vt 0.2100712 0.3122585
vt 6.125072E-10 -0.04978735
vt -0.2100713 0.3122584
vt -0.3754029 -0.02660682
vt -0.4607019 -0.02365276
vt -0.1661161 0.3376991
vt -0.2116355 0.4098977
vt -0.1661161 0.3376991
vt 0.04317065 -0.02480071
vt -0.3754029 -0.02660682
vt -0.2116354 -0.4098977
vt -0.3754029 0.02660675
vt -0.1661161 -0.3376991
vt -0.4607018 0.02365268
vt -0.3754029 0.02660675
vt 0.04317065 0.02480072
vt -0.1661161 -0.3376991
vt 0.25 -0.3876927
vt -0.2100712 -0.3122585
vt 0.2100712 -0.3122585
vt -0.25 -0.3876927
vt -0.2100712 -0.3122585
vt 1.397565E-09 0.04978735
vt 0.2100712 -0.3122585
vt 0.2116354 -0.4098977
vt 0.3754029 0.02660679
vt 0.4607018 0.02365273
vt 0.1661161 -0.3376991
vt 0.1661161 -0.3376991
vt -0.04317065 0.02480072
vt 0.3754029 0.02660679

g Cylinder
usemtl GunGrey_1
f 1/1/1 2/2/2 3/3/3
f 2/2/2 4/4/4 3/3/3
f 5/5/5 6/6/6 7/7/7
f 6/6/6 8/8/8 7/7/7
f 9/9/9 10/10/10 11/11/11
f 10/10/10 12/12/12 11/11/11
f 13/13/13 14/14/14 15/15/15
f 14/14/14 16/16/16 15/15/15
f 17/17/17 18/18/18 19/19/19
f 18/18/18 20/20/20 19/19/19
f 21/21/21 22/22/22 23/23/23
f 22/22/22 24/24/24 23/23/23
f 25/25/25 26/26/26 27/27/27
f 28/28/28 26/26/26 25/25/25
f 29/29/29 30/30/30 31/31/31
f 32/32/32 26/26/26 33/33/33
f 34/34/34 26/26/26 32/32/32
f 27/27/27 26/26/26 34/34/34
f 35/35/35 36/36/36 37/37/37
f 38/38/38 39/39/39 40/40/40
f 41/41/41 42/42/42 43/43/43
f 44/44/44 45/45/45 46/46/46
f 44/44/44 46/46/46 47/47/47
f 48/48/48 49/49/49 50/50/50
f 51/51/51 52/52/52 53/53/53
f 52/52/52 54/54/54 53/53/53
f 55/55/55 56/56/56 57/57/57
f 58/58/58 59/59/59 60/60/60
f 58/58/58 61/61/61 59/59/59
f 62/62/62 63/63/63 64/64/64
f 65/65/65 66/66/66 67/67/67
f 65/65/65 68/68/68 66/66/66
f 69/69/69 70/70/70 71/71/71
f 72/72/72 73/73/73 74/74/74
f 73/73/73 72/72/72 75/75/75
f 76/76/76 77/77/77 78/78/78

