# Exported from ProBuilder
# http://www.procore3d.com/probuilder
# 11/19/2018 8:14:14 PM

mtllib ./Rock_1.mtl
o Rock_1

g Rock
v -0.8607244 1.185223 0.5384753
v -1.383665 0.4363585 1.183292
v 0.3096051 1.138549 1.283592
v -0.8607244 1.185223 0.5384753
v 0.3096051 1.138549 1.283592
v 0.6667013 1.264943 -0.4427269
v -0.8607244 1.185223 0.5384753
v 0.6667013 1.264943 -0.4427269
v -0.06707263 0.8730254 -1.569472
v -0.8607244 1.185223 0.5384753
v -0.06707263 0.8730254 -1.569472
v -1.520905 0.4363585 -0.6520684
v -0.8607244 1.185223 0.5384753
v -1.520905 0.4363585 -0.6520684
v -1.383665 0.4363585 1.183292
v 0.6667013 1.264943 -0.4427269
v 0.3096051 1.138549 1.283592
v 0.9892642 0.4363585 1.196892
v 0.3096051 1.138549 1.283592
v -1.383665 0.4363585 1.183292
v -0.06707263 -1.221337 1.569471
v -1.383665 0.4363585 1.183292
v -1.520905 0.4363585 -0.6520684
v -1.456874 -1.264943 0.13183
v -1.520905 0.4363585 -0.6520684
v -0.06707263 0.8730254 -1.569472
v -0.06707263 -1.221337 -1.305812
v -0.06707263 0.8730254 -1.569472
v 0.6667013 1.264943 -0.4427269
v 1.520905 0.4363585 -0.04547763
v 1.322729 -1.264943 0.13183
v 0.9892642 0.4363585 1.196892
v -0.06707263 -1.221337 1.569471
v 1.322729 -1.264943 0.13183
v -0.06707263 -1.221337 1.569471
v -1.456874 -1.264943 0.13183
v 1.322729 -1.264943 0.13183
v -1.456874 -1.264943 0.13183
v -0.06707263 -1.221337 -1.305812
v 1.322729 -1.264943 0.13183
v -0.06707263 -1.221337 -1.305812
v 1.520905 0.4363585 -0.04547763
v 1.322729 -1.264943 0.13183
v 1.520905 0.4363585 -0.04547763
v 0.9892642 0.4363585 1.196892
v -0.06707263 -1.221337 1.569471
v 0.9892642 0.4363585 1.196892
v 0.3096051 1.138549 1.283592
v -1.456874 -1.264943 0.13183
v -0.06707263 -1.221337 1.569471
v -1.383665 0.4363585 1.183292
v -0.06707263 -1.221337 -1.305812
v -1.456874 -1.264943 0.13183
v -1.520905 0.4363585 -0.6520684
v 1.520905 0.4363585 -0.04547763
v -0.06707263 -1.221337 -1.305812
v -0.06707263 0.8730254 -1.569472
v 0.9892642 0.4363585 1.196892
v 1.520905 0.4363585 -0.04547763
v 0.6667013 1.264943 -0.4427269

vn -0.3407846 0.7387065 0.5815312
vn -0.3407846 0.7387065 0.5815312
vn -0.3407846 0.7387065 0.5815312
vn -0.005934342 0.9974014 0.07179825
vn -0.005934342 0.9974014 0.07179825
vn -0.005934342 0.9974014 0.07179825
vn -0.1864203 0.9592669 -0.2122604
vn -0.1864203 0.9592669 -0.2122604
vn -0.1864203 0.9592669 -0.2122604
vn -0.4390397 0.8499735 -0.2911859
vn -0.4390397 0.8499735 -0.2911859
vn -0.4390397 0.8499735 -0.2911859
vn -0.7937261 0.6053728 0.05935145
vn -0.7937261 0.6053728 0.05935145
vn -0.7937261 0.6053728 0.05935145
vn 0.7164865 0.6691479 0.1972006
vn 0.7164865 0.6691479 0.1972006
vn 0.7164865 0.6691479 0.1972006
vn -0.1153264 0.1375811 0.9837537
vn -0.1153264 0.1375811 0.9837537
vn -0.1153264 0.1375811 0.9837537
vn -0.9972109 -0.003173999 0.07456716
vn -0.9972109 -0.003173999 0.07456716
vn -0.9972109 -0.003173999 0.07456716
vn -0.5072321 -0.1076438 -0.8550605
vn -0.5072321 -0.1076438 -0.8550605
vn -0.5072321 -0.1076438 -0.8550605
vn 0.6854302 0.422209 -0.5932328
vn 0.6854302 0.422209 -0.5932328
vn 0.6854302 0.422209 -0.5932328
vn 0.6846817 -0.2855878 0.67056
vn 0.6846817 -0.2855878 0.67056
vn 0.6846817 -0.2855878 0.67056
vn 0 -0.9995403 0.03031788
vn 0 -0.9995403 0.03031788
vn 0 -0.9995403 0.03031788
vn 0 -0.9995403 -0.03031787
vn 0 -0.9995403 -0.03031787
vn 0 -0.9995403 -0.03031787
vn 0.7080156 -0.1542942 -0.689135
vn 0.7080156 -0.1542942 -0.689135
vn 0.7080156 -0.1542942 -0.689135
vn 0.9173588 -0.0659466 0.3925608
vn 0.9173588 -0.0659466 0.3925608
vn 0.9173588 -0.0659466 0.3925608
vn 0.2112599 0.08424563 0.9737926
vn 0.2112599 0.08424563 0.9737926
vn 0.2112599 0.08424563 0.9737926
vn -0.6612172 -0.3736066 0.6505459
vn -0.6612172 -0.3736066 0.6505459
vn -0.6612172 -0.3736066 0.6505459
vn -0.6736609 -0.3300364 -0.661254
vn -0.6736609 -0.3300364 -0.661254
vn -0.6736609 -0.3300364 -0.661254
vn 0.6761962 -0.0920198 -0.7309521
vn 0.6761962 -0.0920198 -0.7309521
vn 0.6761962 -0.0920198 -0.7309521
vn 0.6073432 0.7507247 0.2598974
vn 0.6073432 0.7507247 0.2598974
vn 0.6073432 0.7507247 0.2598974

vt 1.051462 1.701302
vt 1.701302 0
vt 0 1.051462
vt -1.051462 0
vt 0 1.701302
vt 1.051462 0
vt -1.051462 0
vt 1.051462 0
vt 0 -1.701302
vt -1.051462 1.701302
vt 0 1.051462
vt -1.701302 0
vt 0 1.701302
vt 1.051462 0
vt -1.051462 0
vt -1.051462 1.701302
vt 0 1.051462
vt -1.701302 0
vt 0 1.051462
vt 1.701302 0
vt 0 -1.051462
vt -1.051462 0
vt 1.051462 0
vt 0 -1.701302
vt -1.701302 0
vt 0 1.051462
vt 0 -1.051462
vt 0 1.051462
vt 1.051462 1.701302
vt 1.701302 0
vt -1.051462 -1.701302
vt -1.701302 0
vt 0 -1.051462
vt -1.051462 0
vt 0 1.701302
vt 1.051462 0
vt -1.051462 0
vt 1.051462 0
vt 0 -1.701302
vt 1.051462 -1.701302
vt 0 -1.051462
vt 1.701302 0
vt 0 -1.701302
vt -1.051462 0
vt 1.051462 0
vt 0 -1.051462
vt -1.701302 0
vt 0 1.051462
vt 1.051462 -1.701302
vt 0 -1.051462
vt 1.701302 0
vt 0 -1.051462
vt -1.051462 -1.701302
vt -1.701302 0
vt 1.701302 0
vt 0 -1.051462
vt 0 1.051462
vt 1.051462 0
vt -1.051462 0
vt 0 1.701302

g Rock
usemtl Rock_1
f 1/1/1 2/2/2 3/3/3
f 4/4/4 5/5/5 6/6/6
f 7/7/7 8/8/8 9/9/9
f 10/10/10 11/11/11 12/12/12
f 13/13/13 14/14/14 15/15/15
f 16/16/16 17/17/17 18/18/18
f 19/19/19 20/20/20 21/21/21
f 22/22/22 23/23/23 24/24/24
f 25/25/25 26/26/26 27/27/27
f 28/28/28 29/29/29 30/30/30
f 31/31/31 32/32/32 33/33/33
f 34/34/34 35/35/35 36/36/36
f 37/37/37 38/38/38 39/39/39
f 40/40/40 41/41/41 42/42/42
f 43/43/43 44/44/44 45/45/45
f 46/46/46 47/47/47 48/48/48
f 49/49/49 50/50/50 51/51/51
f 52/52/52 53/53/53 54/54/54
f 55/55/55 56/56/56 57/57/57
f 58/58/58 59/59/59 60/60/60

