# Exported from ProBuilder
# http://www.procore3d.com/probuilder
# 11/19/2018 8:29:11 PM

mtllib ./ExplosiveBarrel.mtl
o ExplosiveBarrel

g Cylinder
v 0.4999999 -0.6 0
v 0.4999999 0.6 0
v 0.3535533 -0.6 0.3535533
v 0.3535533 0.6 0.3535533
v 0.3535533 -0.6 0.3535533
v 0.3535533 0.6 0.3535533
v -1.192093E-07 -0.6 0.5
v -1.192093E-07 0.6 0.5
v -1.192093E-07 -0.6 0.5
v -1.192093E-07 0.6 0.5
v -0.3535535 -0.6 0.3535533
v -0.3535535 0.6 0.3535533
v -0.3535535 -0.6 0.3535533
v -0.3535535 0.6 0.3535533
v -0.5 -0.6 0
v -0.5 0.6 0
v -0.5 -0.6 0
v -0.5 0.6 0
v -0.3535535 -0.6 -0.3535533
v -0.3535535 0.6 -0.3535533
v -0.3535535 -0.6 -0.3535533
v -0.3535535 0.6 -0.3535533
v -1.192093E-07 -0.6 -0.5
v -1.192093E-07 0.6 -0.5
v -1.192093E-07 -0.6 -0.5
v -1.192093E-07 0.6 -0.5
v 0.3535532 -0.6 -0.3535534
v 0.3535532 0.6 -0.3535534
v 0.3535532 -0.6 -0.3535534
v 0.3535532 0.6 -0.3535534
v 0.4999999 -0.6 0
v 0.4999999 0.6 0
v 0.4999999 0.6 0
v 0.425 0.6 0
v 0.3535533 0.6 0.3535533
v 0.3005203 0.6 0.3005204
v -1.192093E-07 0.6 0.425
v 0.3535533 0.6 0.3535533
v -1.192093E-07 0.6 0.5
v -0.3005204 0.6 0.3005204
v -0.3535535 0.6 0.3535533
v -0.4250002 0.6 0
v -0.3535535 0.6 0.3535533
v -0.5 0.6 0
v -0.3535535 0.6 -0.3535533
v -0.4250002 0.6 0
v -0.3005204 0.6 -0.3005203
v -1.192093E-07 0.6 -0.5
v -0.3535535 0.6 -0.3535533
v -1.192093E-07 0.6 -0.425
v -0.3005204 0.6 -0.3005203
v 0.3535532 0.6 -0.3535534
v -1.192093E-07 0.6 -0.425
v 0.3005202 0.6 -0.3005204
v 0.425 0.6 0
v 0.3005202 0.6 -0.3005204
v 0.3005203 -0.6 0.3005202
v 0.425 -0.6 0
v 0.3535533 -0.6 0.3535533
v 0.4999999 -0.6 0
v 0.3535533 -0.6 0.3535533
v -1.192093E-07 -0.6 0.5
v -1.192093E-07 -0.6 0.4249997
v -0.3535535 -0.6 0.3535533
v -1.192093E-07 -0.6 0.4249997
v -0.3005204 -0.6 0.3005202
v -0.5 -0.6 0
v -0.4250002 -0.6 0
v -0.3005204 -0.6 0.3005202
v -0.3535535 -0.6 -0.3535533
v -0.3005204 -0.6 -0.3005202
v -1.192093E-07 -0.6 -0.4249998
v -1.192093E-07 -0.6 -0.5
v 0.3005202 -0.6 -0.3005203
v 0.3535532 -0.6 -0.3535534
v 0.425 -0.6 0
v 0.3535532 -0.6 -0.3535534
v 0.425 0.6 0
v -1.192093E-07 0.6 0
v 0.3005203 0.6 0.3005204
v -1.192093E-07 0.6 0.425
v -0.3005204 0.6 0.3005204
v -0.4250002 0.6 0
v -0.3005204 0.6 -0.3005203
v -1.192093E-07 0.6 -0.425
v 0.3005202 0.6 -0.3005204
v 0.3005203 -0.6 0.3005202
v -1.192093E-07 -0.6 0
v 0.425 -0.6 0
v -1.192093E-07 -0.6 0.4249997
v -0.3005204 -0.6 0.3005202
v -0.4250002 -0.6 0
v -0.3005204 -0.6 -0.3005202
v -1.192093E-07 -0.6 -0.4249998
v 0.3005202 -0.6 -0.3005203

vn 0.9238796 0 0.3826835
vn 0.9238796 0 0.3826835
vn 0.9238796 0 0.3826835
vn 0.9238796 0 0.3826835
vn 0.3826836 0 0.9238794
vn 0.3826836 0 0.9238794
vn 0.3826836 0 0.9238794
vn 0.3826836 0 0.9238794
vn -0.3826836 0 0.9238794
vn -0.3826836 0 0.9238794
vn -0.3826836 0 0.9238794
vn -0.3826836 0 0.9238794
vn -0.9238796 0 0.3826832
vn -0.9238796 0 0.3826832
vn -0.9238796 0 0.3826832
vn -0.9238796 0 0.3826832
vn -0.9238796 0 -0.3826832
vn -0.9238796 0 -0.3826832
vn -0.9238796 0 -0.3826832
vn -0.9238796 0 -0.3826832
vn -0.3826836 0 -0.9238794
vn -0.3826836 0 -0.9238794
vn -0.3826836 0 -0.9238794
vn -0.3826836 0 -0.9238794
vn 0.3826835 0 -0.9238796
vn 0.3826835 0 -0.9238796
vn 0.3826835 0 -0.9238796
vn 0.3826835 0 -0.9238796
vn 0.9238794 0 -0.3826836
vn 0.9238794 0 -0.3826836
vn 0.9238794 0 -0.3826836
vn 0.9238794 0 -0.3826836
vn 0 1 0
vn 0 0.9999999 0
vn 0 0.9999999 0
vn 0 1 0
vn 0 1 0
vn 0 1 0
vn 0 1 0
vn 0 1 0
vn 0 1 0
vn 0 0.9999999 0
vn 0 0.9999999 0
vn 0 1 0
vn 0 1 0
vn 0 1 0
vn 0 0.9999999 0
vn 0 1 0
vn 0 0.9999999 0
vn 0 0.9999999 0
vn 0 1 0
vn 0 1 0
vn 0 1 0
vn 0 0.9999999 0
vn 0 1 0
vn 0 1 0
vn 0 -1 0
vn 0 -1 0
vn 0 -1 0
vn 0 -1 0
vn 0 -0.9999999 0
vn 0 -1 0
vn 0 -0.9999999 0
vn 0 -1 0
vn 0 -1 0
vn 0 -0.9999999 0
vn 0 -1 0
vn 0 -1 0
vn 0 -1 0
vn 0 -1 0
vn 0 -1 0
vn 0 -1 0
vn 0 -1 0
vn 0 -1 0
vn 0 -1 0
vn 0 -0.9999999 0
vn 0 -0.9999999 0
vn 0 1 0
vn 0 1 0
vn 0 1 0
vn 0 1 0
vn 0 1 0
vn 0 1 0
vn 0 1 0
vn 0 1 0
vn 0 1 0
vn 0 -1 0
vn 0 -1 0
vn 0 -1 0
vn 0 -1 0
vn 0 -1 0
vn 0 -1 0
vn 0 -1 0
vn 0 -1 0
vn 0 -1 0

vt -0.1913417 0
vt -0.1913417 1
vt 0.1913417 0
vt 0.1913417 1
vt -0.1913417 0
vt -0.1913417 1
vt 0.1913417 0
vt 0.1913417 1
vt -0.1913417 0
vt -0.1913417 1
vt 0.1913417 0
vt 0.1913417 1
vt -0.1913417 0
vt -0.1913417 1
vt 0.1913418 0
vt 0.1913418 1
vt -0.1913417 0
vt -0.1913417 1
vt 0.1913417 0
vt 0.1913417 1
vt -0.1913417 0
vt -0.1913417 1
vt 0.1913418 0
vt 0.1913418 1
vt -0.1913417 0
vt -0.1913417 1
vt 0.1913417 0
vt 0.1913417 1
vt -0.1913418 0
vt -0.1913418 1
vt 0.1913418 0
vt 0.1913418 1
vt 0.5 0
vt 0.425 1.303851E-09
vt 0.3535534 0.3535534
vt 0.3005204 0.3005204
vt -1.336193E-08 0.425
vt 0.3535534 0.3535534
vt -2.185569E-08 0.5
vt -0.3005204 0.3005204
vt -0.3535534 0.3535534
vt -0.425 -3.585083E-08
vt -0.3535534 0.3535534
vt -0.5 -4.371139E-08
vt -0.3535534 -0.3535534
vt -0.425 -3.585083E-08
vt -0.3005204 -0.3005203
vt 5.96244E-09 -0.5
vt -0.3535534 -0.3535534
vt 1.028348E-08 -0.425
vt -0.3005204 -0.3005203
vt 0.3535533 -0.3535534
vt 1.028348E-08 -0.425
vt 0.3005204 -0.3005204
vt 0.425 1.303851E-09
vt 0.3005204 -0.3005204
vt 0.3005204 0.3005203
vt 0.425 -4.563477E-09
vt 0.3535534 0.3535534
vt 0.5 0
vt 0.3535534 0.3535534
vt -2.185569E-08 0.5
vt -1.401386E-08 0.4249998
vt -0.3535534 0.3535534
vt -1.401386E-08 0.4249998
vt -0.3005204 0.3005203
vt -0.5 -4.371139E-08
vt -0.425 -4.171814E-08
vt -0.3005204 0.3005203
vt -0.3535534 -0.3535534
vt -0.3005204 -0.3005202
vt 9.631556E-09 -0.4249998
vt 5.96244E-09 -0.5
vt 0.3005203 -0.3005203
vt 0.3535533 -0.3535534
vt 0.425 -4.563477E-09
vt 0.3535533 -0.3535534
vt 0.425 1.303851E-09
vt 0 0
vt 0.3005204 0.3005204
vt -1.336193E-08 0.425
vt -0.3005204 0.3005204
vt -0.425 -3.585083E-08
vt -0.3005204 -0.3005203
vt 1.028348E-08 -0.425
vt 0.3005204 -0.3005204
vt 0.3005204 0.3005203
vt 0 0
vt 0.425 -4.563477E-09
vt -1.401386E-08 0.4249998
vt -0.3005204 0.3005203
vt -0.425 -4.171814E-08
vt -0.3005204 -0.3005202
vt 9.631556E-09 -0.4249998
vt 0.3005203 -0.3005203

g Cylinder_0
usemtl ExplosiveBarrel
f 1/1/1 2/2/2 3/3/3
f 2/2/2 4/4/4 3/3/3
f 5/5/5 6/6/6 7/7/7
f 6/6/6 8/8/8 7/7/7
f 9/9/9 10/10/10 11/11/11
f 10/10/10 12/12/12 11/11/11
f 13/13/13 14/14/14 15/15/15
f 14/14/14 16/16/16 15/15/15
f 17/17/17 18/18/18 19/19/19
f 18/18/18 20/20/20 19/19/19
f 21/21/21 22/22/22 23/23/23
f 22/22/22 24/24/24 23/23/23
f 25/25/25 26/26/26 27/27/27
f 26/26/26 28/28/28 27/27/27
f 29/29/29 30/30/30 31/31/31
f 30/30/30 32/32/32 31/31/31
f 33/33/33 34/34/34 35/35/35
f 35/35/35 34/34/34 36/36/36
f 36/36/36 37/37/37 38/38/38
f 37/37/37 39/39/39 38/38/38
f 40/40/40 41/41/41 37/37/37
f 37/37/37 41/41/41 39/39/39
f 40/40/40 42/42/42 43/43/43
f 42/42/42 44/44/44 43/43/43
f 45/45/45 46/46/46 47/47/47
f 45/45/45 44/44/44 46/46/46
f 48/48/48 49/49/49 50/50/50
f 50/50/50 49/49/49 51/51/51
f 52/52/52 48/48/48 53/53/53
f 52/52/52 53/53/53 54/54/54
f 33/33/33 52/52/52 55/55/55
f 52/52/52 56/56/56 55/55/55
f 57/57/57 58/58/58 59/59/59
f 59/59/59 58/58/58 60/60/60
f 61/61/61 62/62/62 63/63/63
f 61/61/61 63/63/63 57/57/57
f 62/62/62 64/64/64 65/65/65
f 65/65/65 64/64/64 66/66/66
f 64/64/64 67/67/67 68/68/68
f 64/64/64 68/68/68 69/69/69
f 68/68/68 67/67/67 70/70/70
f 71/71/71 68/68/68 70/70/70
f 71/71/71 70/70/70 72/72/72
f 72/72/72 70/70/70 73/73/73
f 74/74/74 72/72/72 75/75/75
f 72/72/72 73/73/73 75/75/75
f 76/76/76 74/74/74 77/77/77
f 76/76/76 77/77/77 60/60/60

g Cylinder_1
usemtl ExplosiveBarrel2
f 78/78/78 79/79/79 80/80/80
f 80/80/80 79/79/79 81/81/81
f 81/81/81 79/79/79 82/82/82
f 82/82/82 79/79/79 83/83/83
f 83/83/83 79/79/79 84/84/84
f 84/84/84 79/79/79 85/85/85
f 85/85/85 79/79/79 86/86/86
f 86/86/86 79/79/79 78/78/78
f 87/87/87 88/88/88 89/89/89
f 90/90/90 88/88/88 87/87/87
f 91/91/91 88/88/88 90/90/90
f 92/92/92 88/88/88 91/91/91
f 93/93/93 88/88/88 92/92/92
f 94/94/94 88/88/88 93/93/93
f 95/95/95 88/88/88 94/94/94
f 89/89/89 88/88/88 95/95/95

